<svg fill="none" xmlns="http://www.w3.org/2000/svg"><path
    d="M0 541c-46.4 137.2-119.333 187.5-150 195.5V0h405.5c22.667 37.833 52.4 124.3-10 167.5C167.5 221.5 58 369.5 0 541z"
    fill="url(#paint0_linear)"
  /><path
    d="M0 2744c-46.4 137.2-119.333 187.5-150 195.5V2203h405.5c22.667 37.83 52.4 124.3-10 167.5-78 54-187.5 202-245.5 373.5z"
    fill="url(#paint1_linear)"
  /><path
    d="M1893 592c46.4 137.2 119.33 187.5 150 195.5V51h-405.5c-22.67 37.833-52.4 124.3 10 167.5 78 54 187.5 202 245.5 373.5z"
    fill="url(#paint2_linear)"
  /><path
    d="M1893 2795c46.4 137.2 119.33 187.5 150 195.5V2254h-405.5c-22.67 37.83-52.4 124.3 10 167.5 78 54 187.5 202 245.5 373.5z"
    fill="url(#paint3_linear)"
  /><path
    d="M0 1869c-46.4-137.2-119.333-187.5-150-195.5V2410h405.5c22.667-37.83 52.4-124.3-10-167.5-78-54-187.5-202-245.5-373.5z"
    fill="url(#paint4_linear)"
  /><path
    d="M13 4072c-46.4-137.2-119.333-187.5-150-195.5V4613h405.5c22.667-37.83 52.4-124.3-10-167.5-78-54-187.5-202-245.5-373.5z"
    fill="url(#paint5_linear)"
  /><path
    d="M1893 1869c46.4-137.2 119.33-187.5 150-195.5V2410h-405.5c-22.67-37.83-52.4-124.3 10-167.5 78-54 187.5-202 245.5-373.5z"
    fill="url(#paint6_linear)"
  /><path
    d="M1906 4072c46.4-137.2 119.33-187.5 150-195.5V4613h-405.5c-22.67-37.83-52.4-124.3 10-167.5 78-54 187.5-202 245.5-373.5z"
    fill="url(#paint7_linear)"
  /><defs><linearGradient
      id="paint0_linear"
      x1="-181.5"
      y1="625"
      x2="-40"
      y2="0"
      gradientUnits="userSpaceOnUse"
    ><stop stop-color="#B6DBFC" /><stop
        offset="1"
        stop-color="#B1D4F2"
        stop-opacity="0"
      /></linearGradient><linearGradient
      id="paint1_linear"
      x1="-181.5"
      y1="2828"
      x2="-40"
      y2="2203"
      gradientUnits="userSpaceOnUse"
    ><stop stop-color="#B6DBFC" /><stop
        offset="1"
        stop-color="#B1D4F2"
        stop-opacity="0"
      /></linearGradient><linearGradient
      id="paint2_linear"
      x1="2074.5"
      y1="676"
      x2="1933"
      y2="51"
      gradientUnits="userSpaceOnUse"
    ><stop stop-color="#B6DBFC" /><stop
        offset="1"
        stop-color="#B1D4F2"
        stop-opacity="0"
      /></linearGradient><linearGradient
      id="paint3_linear"
      x1="2074.5"
      y1="2879"
      x2="1933"
      y2="2254"
      gradientUnits="userSpaceOnUse"
    ><stop stop-color="#B6DBFC" /><stop
        offset="1"
        stop-color="#B1D4F2"
        stop-opacity="0"
      /></linearGradient><linearGradient
      id="paint4_linear"
      x1="-181.5"
      y1="1785"
      x2="-40"
      y2="2410"
      gradientUnits="userSpaceOnUse"
    ><stop stop-color="#B6DBFC" /><stop
        offset="1"
        stop-color="#B1D4F2"
        stop-opacity="0"
      /></linearGradient><linearGradient
      id="paint5_linear"
      x1="-168.5"
      y1="3988"
      x2="-27"
      y2="4613"
      gradientUnits="userSpaceOnUse"
    ><stop stop-color="#B6DBFC" /><stop
        offset="1"
        stop-color="#B1D4F2"
        stop-opacity="0"
      /></linearGradient><linearGradient
      id="paint6_linear"
      x1="2074.5"
      y1="1785"
      x2="1933"
      y2="2410"
      gradientUnits="userSpaceOnUse"
    ><stop stop-color="#B6DBFC" /><stop
        offset="1"
        stop-color="#B1D4F2"
        stop-opacity="0"
      /></linearGradient><linearGradient
      id="paint7_linear"
      x1="2087.5"
      y1="3988"
      x2="1946"
      y2="4613"
      gradientUnits="userSpaceOnUse"
    ><stop stop-color="#B6DBFC" /><stop
        offset="1"
        stop-color="#B1D4F2"
        stop-opacity="0"
      /></linearGradient></defs></svg>
