<svg xmlns="http://www.w3.org/2000/svg"><defs><symbol
      id="icon-bg"
      viewBox="0 0 14 32"
    ><path
        d="M0 4.026c-.345 1.021-.888 1.395-1.116 1.455V0h3.018c.169.282.39.925-.074 1.246-.58.402-1.395 1.503-1.827 2.78zM0 20.42c-.345 1.021-.888 1.395-1.116 1.455v-5.481h3.018c.169.282.39.925-.074 1.247-.58.402-1.395 1.503-1.827 2.78zM14.087 4.406c.345 1.021.888 1.395 1.116 1.455V.38h-3.018c-.169.282-.39.925.074 1.246.58.402 1.395 1.503 1.827 2.78zM14.087 20.8c.345 1.021.888 1.395 1.116 1.455v-5.481h-3.018c-.169.282-.39.925.074 1.247.58.402 1.395 1.503 1.827 2.78z"
      /><path
        d="M0 13.909c-.345-1.021-.888-1.395-1.116-1.455v5.481h3.018c.169-.282.39-.925-.074-1.247-.58-.402-1.395-1.503-1.827-2.78zM.097 30.303c-.345-1.021-.888-1.395-1.116-1.455v5.481h3.018c.169-.282.39-.925-.074-1.246-.58-.402-1.395-1.503-1.827-2.78zM14.087 13.909c.345-1.021.888-1.395 1.116-1.455v5.481h-3.018c-.169-.282-.39-.925.074-1.247.58-.402 1.395-1.503 1.827-2.78zM14.184 30.303c.345-1.021.888-1.395 1.116-1.455v5.481h-3.018c-.169-.282-.39-.925.074-1.246.58-.402 1.395-1.503 1.827-2.78z"
      /></symbol></defs></svg>
